<?xml version="1.0" ?><!DOCTYPE svg  PUBLIC '-//W3C//DTD SVG 1.1//EN'  'http://www.w3.org/Graphics/SVG/1.1/DTD/svg11.dtd'><svg enable-background="new 0 0 512 512" height="512px" id="Слой_1" version="1.1" viewBox="0 0 512 512" width="512px" xml:space="preserve" xmlns="http://www.w3.org/2000/svg" xmlns:xlink="http://www.w3.org/1999/xlink"><g><g><g><path clip-rule="evenodd" d="M384.669,63.95c0,19.016,0,38.043,0,57.081      c-9.516-7.166-19.644-12.869-30.377-17.106c0-11.556,0-23.116,0-34.681H157.767v323.12h196.525c0-11.565,0-23.126,0-34.679      c10.733-4.246,20.861-9.947,30.377-17.109c0,35.8,0,71.605,0,107.417c0.009,6.898-2.435,12.797-7.333,17.688      c-4.913,4.897-10.83,7.342-17.75,7.332H152.529c-6.921,0.01-12.838-2.435-17.75-7.332c-4.878-4.892-7.304-10.79-7.274-17.688      V63.95c-0.029-6.901,2.396-12.797,7.274-17.69c4.912-4.917,10.829-7.38,17.75-7.39h207.057c6.92,0.009,12.837,2.473,17.75,7.39      C382.234,51.153,384.678,57.049,384.669,63.95z M305.756,421.051h-99.455c1.646,2.101,3.449,4.138,5.413,6.11      c12.267,12.244,27.047,18.354,44.344,18.329c0.291,0,0.582,0,0.873,0h0.06c16.881-0.182,31.353-6.291,43.412-18.329      C302.346,425.188,304.13,423.151,305.756,421.051z" fill="#ff780a" fill-rule="evenodd"/></g><g><path clip-rule="evenodd" d="M354.292,126.56c10.918,5.328,21.043,12.563,30.377,21.704      c0.332,0.332,0.659,0.662,0.989,0.989c22.539,22.521,33.81,49.715,33.812,81.582c-0.002,31.867-11.272,59.059-33.812,81.579      c-0.33,0.33-0.657,0.657-0.989,0.989c-9.334,9.146-19.459,16.379-30.377,21.704c-15.222,7.436-31.982,11.158-50.282,11.172      c-29.775-0.009-55.479-9.844-77.107-29.501c-1.532-1.407-3.045-2.861-4.539-4.364c-22.521-22.521-33.771-49.712-33.754-81.579      c-0.017-31.867,11.233-59.062,33.754-81.582c22.541-22.555,49.758-33.843,81.646-33.865      C322.31,115.401,339.07,119.125,354.292,126.56z M371.691,169.155c-5.563,4.114-11.362,7.644-17.399,10.59      c-11.914,5.835-24.756,9.403-38.525,10.706v28.628h79.087c-1.359-11.518-4.756-22.187-10.185-32.004      c-1.032-1.877-2.137-3.719-3.316-5.527v-0.116c-0.139-0.232-0.255-0.464-0.351-0.698      C378.249,176.711,375.145,172.851,371.691,169.155z M315.767,166.537c13.567-1.601,25.981-6.042,37.245-13.327      c-11.26-7.267-23.674-11.689-37.245-13.268V166.537z M292.022,139.942c-13.558,1.587-25.953,6.028-37.187,13.327      c11.245,7.253,23.641,11.676,37.187,13.268V139.942z M292.022,190.451c-20.729-1.962-39.351-9.061-55.867-21.296      c-3.649,3.969-6.869,8.137-9.661,12.511l-0.058,0.057h-0.058c-0.065,0.079-0.123,0.156-0.176,0.234      c-7.277,11.183-11.7,23.557-13.268,37.122h79.087V190.451z M371.634,292.571c5.19-5.621,9.534-11.597,13.035-17.923      c5.419-9.787,8.815-20.416,10.185-31.885h-79.087v28.568c13.776,1.291,26.618,4.842,38.525,10.649      C360.312,284.94,366.092,288.471,371.634,292.571z M292.022,295.249c-13.563,1.577-25.958,6-37.187,13.267      c11.229,7.285,23.625,11.727,37.187,13.324V295.249z M315.767,321.84c13.571-1.596,25.988-6.037,37.245-13.324      c-11.262-7.267-23.676-11.689-37.245-13.267V321.84z M236.214,292.571c16.486-12.218,35.089-19.296,55.809-21.239v-28.568      h-78.913C215.302,261.638,223.003,278.24,236.214,292.571z" fill="#ff780a" fill-rule="evenodd"/></g></g></g></svg>